# xmcd
#
# Track frame offsets: 
#        150
#        12574
#        25242
#        38275
#        50737
#        62981
#        76648
#        87376
#        103049
#        106894
#        110279
#        125374
#        140208
#        155519
#        156284
#        168238
#        198683
#        214008
#        243836
#        274291
#        289566
#        304804
#        320770
#        336792
#
# Disc length: 4695 seconds
#
# Revision: 0
# Processed by: cddbd v1.5.2PL0 Copyright (c) Steve Scherf et al.
# Submitted via: ExactAudioCopy v0.95b3
#
DISCID=56125518
DTITLE=Jimi Hendrix  - Moonbeams and Fairytales - Disc 03
DYEAR=1900
DGENRE=
TTITLE0=Purple Haze
TTITLE1=Purple Haze
TTITLE2=Purple Haze
TTITLE3=Purple Haze
TTITLE4=Purple Haze
TTITLE5=Purple Haze
TTITLE6=Purple Haze
TTITLE7=Purple Haze
TTITLE8=51st Anniversary
TTITLE9=51st Anniversary
TTITLE10=51st Anniversary
TTITLE11=51st Anniversary
TTITLE12=51st Anniversary
TTITLE13=51st Anniversary
TTITLE14=Third Stone from the Sun
TTITLE15=Third Stone from the Sun
TTITLE16=Third Stone from the Sun
TTITLE17=Third Stone from the Sun
TTITLE18=Third Stone from the Sun
TTITLE19=The Wind Cries Mary
TTITLE20=The Wind Cries Mary
TTITLE21=The Wind Cries Mary
TTITLE22=The Wind Cries Mary
TTITLE23=Hey Joe
EXTD=
EXTT0=
EXTT1=
EXTT2=
EXTT3=
EXTT4=
EXTT5=
EXTT6=
EXTT7=
EXTT8=
EXTT9=
EXTT10=
EXTT11=
EXTT12=
EXTT13=
EXTT14=
EXTT15=
EXTT16=
EXTT17=
EXTT18=
EXTT19=
EXTT20=
EXTT21=
EXTT22=
EXTT23=
PLAYORDER=
